@startuml
'https://plantuml.com/class-diagram

abstract class Ammo {
  -String imageUrl
  -Number points
  +getImageUrl()
  +setImageUrl()
}



abstract AbstractCollection
interface List
interface Collection

List <|-- AbstractList
Collection <|-- AbstractCollection

Collection <|- List
AbstractCollection <|- AbstractList
AbstractList <|-- ArrayList

class ArrayList {
Object[] elementData
size()
}

enum TimeUnit {
DAYS
HOURS
MINUTES
}

@enduml